<svg xmlns="http://www.w3.org/2000/svg" viewBox="0 0 512 512">
  <defs>
    <!-- Water Molecule Definition -->
    <g id="water">
      <circle cx="0" cy="0" r="18" fill="#e03131" stroke="#343a40" stroke-width="3" opacity="0.95"/> <!-- Oxygen -->
      <circle cx="-16" cy="12" r="10" fill="#f8f9fa" stroke="#343a40" stroke-width="3" opacity="0.95"/> <!-- Hydrogen 1 -->
      <circle cx="16" cy="12" r="10" fill="#f8f9fa" stroke="#343a40" stroke-width="3" opacity="0.95"/> <!-- Hydrogen 2 -->
    </g>
    <!-- Generic Atom Definition -->
    <g id="atom-green">
      <circle cx="0" cy="0" r="22" fill="#2f9e44" stroke="#343a40" stroke-width="3" opacity="0.9"/>
    </g>
    <g id="atom-yellow">
      <circle cx="0" cy="0" r="25" fill="#fcc419" stroke="#343a40" stroke-width="3" opacity="0.9"/>
    </g>
  </defs>

  <!-- Document (File) -->
  <rect x="80" y="50" width="352" height="412" rx="25" ry="25" fill="#f8f9fa" stroke="#343a40" stroke-width="10"/>

  <!-- Text lines (Faded background) -->
  <g stroke="#dee2e6" stroke-width="8" stroke-linecap="round">
    <line x1="130" y1="120" x2="380" y2="120"/>
    <line x1="130" y1="160" x2="380" y2="160"/>
    <line x1="130" y1="200" x2="380" y2="200"/>
    <line x1="130" y1="240" x2="380" y2="240"/>
    <line x1="130" y1="280" x2="380" y2="280"/>
    <line x1="130" y1="320" x2="380" y2="320"/>
    <line x1="130" y1="360" x2="380" y2="360"/>
    <line x1="130" y1="400" x2="380" y2="400"/>
  </g>

  <!-- Graph -->
  <!-- Axes -->
  <g stroke="#343a40" stroke-width="6" stroke-linecap="round">
    <line x1="140" y1="380" x2="140" y2="140" /> <!-- Y Axis -->
    <line x1="140" y1="380" x2="380" y2="380" /> <!-- X Axis -->
  </g>
  <!-- Labels -->
  <text x="120" y="145" font-family="Arial, sans-serif" font-weight="bold" font-size="28" fill="#343a40">T</text>
  <text x="390" y="390" font-family="Arial, sans-serif" font-weight="bold" font-size="28" fill="#343a40">P</text>
  
  <!-- Smooth Curve -->
  <path d="M140,300 C180,300 200,340 240,260 C280,180 320,160 380,180" fill="none" stroke="#228be6" stroke-width="10" stroke-linecap="round"/>

  <!-- Scattered Atoms & Water -->
  <!-- Top Right -->
  <use href="#water" x="420" y="90" transform="rotate(20 420 90)" />
  <!-- Bottom Left -->
  <use href="#water" x="90" y="440" transform="rotate(-15 90 440)" />
  <!-- Middle Overlap -->
  <use href="#water" x="280" y="120" transform="rotate(160 280 120)" />

  <!-- Random Atoms -->
  <use href="#atom-green" x="430" y="250" />
  <use href="#atom-yellow" x="80" y="180" />
  <use href="#atom-green" x="350" y="430" />
  <use href="#atom-yellow" x="200" y="80" opacity="0.8"/>
  <use href="#atom-green" x="250" y="450" />

</svg>
