<svg xmlns="http://www.w3.org/2000/svg" viewBox="0 0 512 512">
  <!-- Document (File with text) -->
  <rect x="106" y="60" width="300" height="392" rx="20" ry="20" fill="#f8f9fa" stroke="#343a40" stroke-width="12"/>
  <!-- Text lines -->
  <line x1="146" y1="130" x2="366" y2="130" stroke="#adb5bd" stroke-width="8" stroke-linecap="round"/>
  <line x1="146" y1="170" x2="366" y2="170" stroke="#adb5bd" stroke-width="8" stroke-linecap="round"/>
  <line x1="146" y1="210" x2="366" y2="210" stroke="#adb5bd" stroke-width="8" stroke-linecap="round"/>
  <line x1="146" y1="250" x2="366" y2="250" stroke="#adb5bd" stroke-width="8" stroke-linecap="round"/>
  <line x1="146" y1="290" x2="366" y2="290" stroke="#adb5bd" stroke-width="8" stroke-linecap="round"/>
  <line x1="146" y1="330" x2="366" y2="330" stroke="#adb5bd" stroke-width="8" stroke-linecap="round"/>
  <line x1="146" y1="370" x2="366" y2="370" stroke="#adb5bd" stroke-width="8" stroke-linecap="round"/>

  <!-- Graph (Production of a graph) -->
  <polyline points="146,370 190,300 234,340 278,220 322,260 366,150" fill="none" stroke="#007bff" stroke-width="12" stroke-linecap="round" stroke-linejoin="round"/>
  <circle cx="146" cy="370" r="6" fill="#007bff"/>
  <circle cx="190" cy="300" r="6" fill="#007bff"/>
  <circle cx="234" cy="340" r="6" fill="#007bff"/>
  <circle cx="278" cy="220" r="6" fill="#007bff"/>
  <circle cx="322" cy="260" r="6" fill="#007bff"/>
  <circle cx="366" cy="150" r="6" fill="#007bff"/>

  <!-- Atoms (Multiple atoms) floating out -->
  <circle cx="380" cy="100" r="25" fill="#e03131" stroke="#343a40" stroke-width="4" opacity="0.9"/>
  <circle cx="430" cy="130" r="20" fill="#2f9e44" stroke="#343a40" stroke-width="4" opacity="0.9"/>
  <circle cx="410" cy="60" r="15" fill="#fcc419" stroke="#343a40" stroke-width="4" opacity="0.9"/>
</svg>
